<svg id="icons" xmlns="http://www.w3.org/2000/svg" viewBox="0 0 120 120">
  <style>
    .st0{fill:#767676;}
  </style>
  <path class="st0" d="M111.3 38.3c0-5.5-2-10-6.2-13.7-6-5.5-11.8-11.3-17.3-17.3-3.8-4.1-8.3-6.2-13.9-6.2H17.7c-.6 0-1.3 0-1.9.1-3.3.4-5.6 2.8-5.8 6.2-.1.7 0 1.4 0 2.1v101.8c0 .9 0 1.7.1 2.5.3 2.7 2.7 5 5.5 5.2.7.1 1.4.1 2.1.1h87.1c3.5-.1 6-2.5 6.4-6 .1-.6.1-1.3.1-1.9V38.3zM77.9 10.4c1 .2 1.8.8 2.6 1.6l19.9 19.9c.7.7 1.3 1.6 1.6 2.6-.4.5-.8.4-1.2.4H79.4c-1.7 0-1.8 0-1.8-1.7V11.6c0-.4-.1-.8.3-1.2zm-58.4 100c-.6 0-.9-.3-.9-.9V39h19.3c1.6 0 1.6.1 1.6 1.7v24.4c0 1.1-.1 2.2.3 3.3.7 2.1 3 4.3 6.3 4.3 7.9-.1 15.8-.1 23.8 0h2.3c.7 0 1 .3 1 1v36.8H20.7c-.3-.1-.7-.1-1.2-.1zm28.9-70.6c1 .2 1.8.8 2.6 1.6l19.9 19.9c.7.7 1.3 1.6 1.6 2.6-.4.5-.8.4-1.2.4H49.9c-1.7 0-1.8 0-1.8-1.7V41.1c.1-.5-.1-.9.3-1.3zm52.1 70.6H81.8V67.7c0-5.5-2-10-6.2-13.7-6-5.5-11.8-11.3-17.3-17.3-3.8-4.1-8.3-6.2-13.9-6.2H18.6V11.3c0-1.9 0-1.8 1.9-1.8h46.9c1.6 0 1.6.1 1.6 1.7v24.4c0 1.1-.1 2.2.3 3.3.7 2.1 3 4.3 6.3 4.3 7.9-.1 15.8-.1 23.8 0h2.3c.7 0 1 .3 1 1v64c0 2.4.3 2.2-2.2 2.2z" id="genericasset"/>
</svg>
