<svg id="icons" xmlns="http://www.w3.org/2000/svg" viewBox="0 0 120 120">
  <style>
    .st0{fill:#767676;}
  </style>
  <g id="video">
    <path class="st0" d="M10 59.9V7.3c.2-3.4 2.5-5.9 5.9-6.2.6-.1 1.3-.1 1.9-.1h56C79 1 83.4 2.8 87 6.5l18.9 18.9c3.5 3.5 5.2 7.7 5.2 12.6v73.4c0 1 0 2-.3 2.9-.7 2.6-2.9 4.4-5.6 4.6-.7.1-1.4.1-2.1.1H16.3c-3.5-.1-6-2.6-6.2-6.1-.1-1.6-.1-3.1-.1-4.6V59.9zm8.6 0v48.2c0 2.7-.3 2.4 2.3 2.4h79.3c2.7 0 2.4.2 2.4-2.4V45.9c0-3 .4-2.6-2.7-2.6H75.5c-2.7 0-4.7-1.2-5.9-3.6-.6-1.1-.6-2.3-.6-3.5V12c0-2.6.3-2.4-2.4-2.4H20.9c-2.6 0-2.4-.3-2.4 2.4 0 15.9.1 31.9.1 47.9zm59.2-49.5c-.4.3-.3.6-.3.9v22c0 1.4.1 1.4 1.6 1.4h21.6c.4 0 .9.2 1.2-.4-.3-1-.9-1.8-1.6-2.6-6.6-6.6-13.2-13.3-19.8-19.9-.9-.7-1.8-1.3-2.7-1.4z"/>
    <path class="st0" d="M47.8 93.7c-4 0-8-.2-12 .1-5.2.2-9.1-4.3-9-9 .2-8.1.2-16.2 0-24.2-.1-4.7 3.7-9.1 9-9 8.1.1 16.2 0 24.2.1 5.4.1 9 3.6 9 9 .1 8.1 0 16.2.1 24.2.1 4.9-3.9 9.2-9 9-4.1-.3-8.2-.2-12.3-.2zm46.5-21v17.7c0 1.3.1 2.6-1.4 3.2-1.4.5-2.4-.4-3.3-1.3-5.1-5.2-10.3-10.3-15.4-15.5-.7-.7-1-1.5-1.1-2.6-.4-3.2.6-5.5 3-7.7 4.6-4.2 8.8-8.8 13.3-13.2.4-.4.9-.9 1.4-1.3 1.5-1 3.2-.3 3.5 1.6.1.5.1 1.1.1 1.7-.1 5.8-.1 11.6-.1 17.4z"/>
  </g>
</svg>
