<svg id="icons" xmlns="http://www.w3.org/2000/svg" viewBox="0 0 120 120">
  <style>
    .st0{fill:#767676;}
  </style>
  <g id="image">
    <path class="st0" d="M10.1 59.9V7.3c.2-3.4 2.6-5.9 5.9-6.2.6-.1 1.3-.1 1.9-.1h56c5.2 0 9.6 1.8 13.2 5.5L106 25.4c3.5 3.5 5.2 7.7 5.2 12.7v73.4c0 1 0 2-.3 2.9-.7 2.6-2.9 4.4-5.6 4.6-.6.1-1.3 0-1.9 0H16.1c-3.3-.2-5.8-2.6-6-5.9-.1-.7-.1-1.4-.1-2.1.1 0 .1-51.1.1-51.1zm8.5.1v49c0 1.4.1 1.4 1.6 1.5h80c2.8 0 2.5.3 2.5-2.4v-62c0-3.2.4-2.7-2.8-2.7-8.1 0-16.2-.1-24.2 0-3.4.1-5.7-2.2-6.4-4.3-.4-1-.3-2.1-.3-3.1V11.3c0-1.6-.1-1.7-1.6-1.7H20.3c-1.6 0-1.6 0-1.7 1.6V60zm59-49.7V33c0 1.7 0 1.7 1.7 1.7h21.6c.3 0 .7.1 1-.3-.3-1.1-.9-1.9-1.7-2.7-6.6-6.6-13.2-13.2-19.7-19.8-.8-.7-1.6-1.4-2.9-1.6z"/>
    <path class="st0" d="M47.8 85.1c1-.4 1.4-1.1 1.9-1.6 7.2-7.2 14.5-14.4 21.7-21.7l1.2-1.2c.4-.4.9-.4 1.2.1l.9.9L93 79.9c.9.9 1.3 1.8 1.3 3.1-.1 5.7-.1 11.3-.1 17 0 2.4.2 2.2-2.3 2.2H28.4c-1.6 0-1.6-.1-1.7-1.6v-9.7c0-1 .3-1.7 1-2.4 3.5-3.4 7-7 10.4-10.4 1.2-1.2 1.3-1.2 2.6.1 2.5 2.2 4.8 4.5 7.1 6.9zM27 55.6c.1-7.1 5.8-12.6 12.8-12.5S52.4 49 52.3 56c-.2 7.5-6.6 12.7-13.1 12.5-7-.3-12.4-5.8-12.2-12.9z"/>
  </g>
</svg>
