<svg id="icons" xmlns="http://www.w3.org/2000/svg" viewBox="0 0 120 120">
  <style>
    .st0{fill:#767676;}
  </style>
  <path class="st0" d="M10.2 60.1V7.3c.2-3.3 2.5-5.8 5.8-6.2.6-.1 1.3-.1 1.9-.1h56.2c5.2 0 9.5 1.8 13.2 5.5C93.5 12.8 99.8 19 106 25.2c3.6 3.6 5.3 7.9 5.3 13.1V111c0 .6 0 1.3-.1 1.9-.3 3.5-2.8 5.9-6.4 6H17.7c-.7 0-1.4 0-2.1-.1-2.7-.2-5.1-2.5-5.5-5.2-.1-.9-.1-1.7-.1-2.5.2-17 .2-34 .2-51zm8.5-.2v49.6c0 .6.2.9.9.9h81c2.5 0 2.2.2 2.2-2.3v-64c.1-.7-.3-1-1-1h-2.3c-7.9 0-15.8-.1-23.8 0-3.3.1-5.6-2.1-6.3-4.3-.4-1.1-.3-2.2-.3-3.3V11.1c0-1.6-.1-1.7-1.6-1.7H20.6c-1.9 0-1.9-.2-1.9 1.8v48.7zm59.2-49.5c-.4.4-.3.9-.3 1.2V33c0 1.7 0 1.7 1.8 1.7h21.4c.4 0 .8.2 1.2-.4-.3-1-.9-1.8-1.6-2.6-6.6-6.6-13.2-13.3-19.8-19.9-.8-.6-1.7-1.2-2.7-1.4z" id="document"/>
</svg>
