<svg id="icons" xmlns="http://www.w3.org/2000/svg" viewBox="0 0 120 120">
  <style>
    .st0{fill:#767676;}
  </style>
  <g id="audio">
    <path class="st0" d="M10.2 60.1V7.3c.2-3.3 2.5-5.8 5.8-6.2.6-.1 4.2-.1 2-.1h55.7c5.2 0 9.7 1.7 13.4 5.5 6.2 6.3 12.5 12.5 18.7 18.7 3.6 3.5 5.3 7.8 5.3 12.8v73.2c0 1.1 0 2.1-.3 3.1-.7 2.6-2.9 4.4-5.7 4.5-.5.1-1.1 0-1.7 0H17.7c-.7 0-1.4 0-2.1-.1-2.7-.3-5.1-2.5-5.5-5.3-.1-.9-.1-1.7-.1-2.5.2-16.8.2-33.8.2-50.8zm8.5-.1v48.1c0 2.6-.3 2.4 2.4 2.4h79.3c2.7 0 2.4.2 2.4-2.4V45.7c0-.4-.1-.9 0-1.3.1-.9-.3-1.3-1.2-1.2-.5.1-1 0-1.5 0-8.1 0-16.3-.1-24.4 0-3.1.1-5.5-2-6.3-4.3-.3-1-.3-2.1-.3-3.1V11.4c0-1.8 0-1.8-1.9-1.8H20.4c-1.8 0-1.8 0-1.8 1.8v1.3c.1 15.7.1 31.5.1 47.3zm58.9-49.6v23.1c0 1.2.5 1.3 1.5 1.3 7.4 0 14.8 0 22.3-.1.2 0 .4.1.6-.4-.2-1-.9-1.9-1.7-2.7L80.6 12c-.9-.8-1.7-1.4-3-1.6z"/>
    <path class="st0" d="M52.4 77v16.2c0 .5.1 1.1-.1 1.7-.3 1.8-1.8 2.6-3.4 1.6-.5-.3-1-.8-1.4-1.3-2.9-2.9-5.8-5.7-8.6-8.7-.9-1-1.8-1.3-3.2-1.3-2 .1-4.1.1-6.1 0-2.1-.1-2.7-.6-2.7-2.6-.1-3.9-.1-7.7 0-11.6 0-2 .7-2.7 2.6-2.7 2.2-.1 4.3-.1 6.5 0 1.2.1 2-.4 2.7-1.2 2.8-2.9 5.7-5.8 8.6-8.7.4-.4.7-.8 1.2-1.2 1.5-1.1 3.3-.4 3.6 1.5.1.5.1 1.1.1 1.7.2 5.7.2 11.2.2 16.6zm37.8-.6c-.1 9.3-2.8 17.1-8.2 23.9-1.6 2.1-3.5 2.6-5.5 1.6-2.4-1.2-3.1-3.8-1.8-6 .3-.5.7-1 1.1-1.6 7.8-10.6 7.7-24.4-.1-35l-.9-1.2c-1.3-2.1-.9-4.6 1.1-5.9 1.8-1.3 4.3-.9 5.8.9 3.7 4.7 6.4 10 7.6 15.9.6 2.7.9 5.3.9 7.4zm-16.8.5c-.1 5.4-1.9 10.2-5.5 14.2-1.8 2-4.3 2.2-6.2.6-1.8-1.6-2-4-.3-6 1.6-2 2.9-4.1 3.3-6.7.5-3.6-.3-6.8-2.5-9.7L61 67.8c-1.2-1.8-1-3.9.5-5.3 1.4-1.4 3.6-1.7 5.4-.5 1.1.7 1.9 1.9 2.7 2.9 2.6 3.6 3.7 7.6 3.8 12z"/>
  </g>
</svg>
