<svg id="Layer_1" data-name="Layer 1" xmlns="http://www.w3.org/2000/svg" viewBox="0 0 97.99 129"><defs><style>.cls-1,.cls-2{fill:#fff;}.cls-1{fill-rule:evenodd;}</style></defs><title>Oregon State University Libraries</title><path class="cls-1" d="M82.16 72.67c-8.37 0-15.19-6.33-15.19-14.18V2h11.17v56.79a4 4 0 0 0 8 0V2h11.2v56.49c.01 7.85-6.84 14.18-15.18 14.18zM48.81 62.8a4 4 0 0 0 4-3.94v-5.24a9.81 9.81 0 0 0-1.62-5.77L37.37 31a19.36 19.36 0 0 1-3.74-11.87v-4.94C33.63 6.38 40.45.08 48.82.08S64 6.43 64 14.24v8.2H52.82v-8.5a4 4 0 0 0-8 0v5.24A9.81 9.81 0 0 0 46.43 25l13.75 16.67a19.33 19.33 0 0 1 3.81 12v4.94c0 7.81-6.82 14.1-15.19 14.1s-15.19-6.3-15.19-14.1v-8.99h11.18v9.25a4 4 0 0 0 4.02 3.93zm-37.36-4a4 4 0 0 0 8 0V13.88a4 4 0 0 0-8 0v44.91zm19.2-.3c0 7.85-6.82 14.18-15.19 14.18S.27 66.34.27 58.49V14.18C.27 6.33 7.09 0 15.5 0s15.15 6.33 15.15 14.18v44.31zm-5.59 33.56a8.82 8.82 0 0 1-3.42.77 4.16 4.16 0 0 1-3.14-1.14 4.62 4.62 0 0 1-1.09-3.29v-2.57a4.8 4.8 0 0 1 1-3.26 3.63 3.63 0 0 1 2.85-1.12 3.68 3.68 0 0 1 2.74 1 4 4 0 0 1 1 2.86v2.39h-5v.94a1.92 1.92 0 0 0 .55 1.45 2.22 2.22 0 0 0 1.56.52 6.1 6.1 0 0 0 2.58-.73zm-5-6h2.62v-.9q0-1.81-1.31-1.81a1.15 1.15 0 0 0-.95.45 2.1 2.1 0 0 0-.36 1.3v1zm51.57 2a3.25 3.25 0 0 0 .31 1.75 1.46 1.46 0 0 0 1.34.5h.38v2.4q-.64.05-1.17 0a3 3 0 0 1-3.67-3.64v-5.24h-1.6v-2.06h1.57v-3.89h2.8v3.89h2v2.06h-2v4.31zm-45.51 7.01L27.86 94a3.16 3.16 0 0 0 .6.65 1.77 1.77 0 0 0 1.11.37 2.22 2.22 0 0 0 .88-.19 1.48 1.48 0 0 0 .77-.74 3.25 3.25 0 0 0 .16-1.26v-1.1a3 3 0 0 1-2.37 1.14 2.29 2.29 0 0 1-2.26-1.37 10 10 0 0 1-.61-4.14 26 26 0 0 1 .09-2.64 5 5 0 0 1 .51-1.88 2.45 2.45 0 0 1 1-1 2.93 2.93 0 0 1 1.43-.35 3.53 3.53 0 0 1 1.4.36 2.11 2.11 0 0 1 .84.74v-.83h2.69v9.66a14.46 14.46 0 0 1-.07 1.74 5.15 5.15 0 0 1-.39 1.77 3.18 3.18 0 0 1-1.32 1.37 5.21 5.21 0 0 1-2.55.55 5.63 5.63 0 0 1-2-.31 3.31 3.31 0 0 1-1.16-.71 2.19 2.19 0 0 1-.49-.76zm5.26-5.93v-4a3.5 3.5 0 0 0-.2-.93 1 1 0 0 0-1-.64 1 1 0 0 0-1 .85 12.33 12.33 0 0 0-.19 2.58v.24a10.24 10.24 0 0 0 .2 2.56 1 1 0 0 0 1 .86c.68.04 1.07-.46 1.19-1.52zm13.22 3.48V81.79h2.57v2a6.32 6.32 0 0 1 1.33-1.54 2.79 2.79 0 0 1 1.79-.68 2.59 2.59 0 0 1 1.87.63 2.5 2.5 0 0 1 .69 1.32 5.53 5.53 0 0 1 .1 1.17v7.92h-2.84v-7.06a3.86 3.86 0 0 0 0-.57 1.28 1.28 0 0 0-.23-.61.78.78 0 0 0-.65-.29 1.64 1.64 0 0 0-1 .34 5.55 5.55 0 0 0-.8.78v7.41H44.6zm-9.19-5.71q0-.78.06-1.71a6 6 0 0 1 .42-1.78A3.07 3.07 0 0 1 37.05 82a4 4 0 0 1 2.23-.56 6.89 6.89 0 0 1 1.2.08 3.32 3.32 0 0 1 1.22.45 3.13 3.13 0 0 1 1 1.12 4.6 4.6 0 0 1 .5 1.62 17.4 17.4 0 0 1 .13 2.42 15.19 15.19 0 0 1-.15 2.72 3.53 3.53 0 0 1-.93 1.88 3 3 0 0 1-.84.64 4.22 4.22 0 0 1-1.92.38 8.47 8.47 0 0 1-1.15-.07 3.2 3.2 0 0 1-1.17-.36 3.15 3.15 0 0 1-1.22-1.28 5.13 5.13 0 0 1-.48-1.8 22.09 22.09 0 0 1-.05-2.33zm2.63 1.19a11.49 11.49 0 0 0 .06 1.27 2.53 2.53 0 0 0 .08.41l.08.22a1 1 0 0 0 .54.62l.27.08a.94.94 0 0 0 .3 0 1.71 1.71 0 0 0 .42 0 .9.9 0 0 0 .54-.31 1.23 1.23 0 0 0 .17-.39 2.48 2.48 0 0 0 .18-.79 11.58 11.58 0 0 0 0-1.31v-1.6a11.58 11.58 0 0 0-.06-1.43 1.85 1.85 0 0 0-.37-1 1.22 1.22 0 0 0-1-.37 1 1 0 0 0-.91.43 2.21 2.21 0 0 0-.32 1v3.17zM11.5 92.62V81.79h2.41l.18 1.37a2.47 2.47 0 0 1 2.53-1.66h.19v2.64h-.23a2.13 2.13 0 0 0-1.75.63 3.1 3.1 0 0 0-.51 2v5.84H11.5zm76.2-4.48a3.25 3.25 0 0 0 .31 1.75 1.46 1.46 0 0 0 1.34.5h.38v2.4q-.65.05-1.17 0a3 3 0 0 1-3.67-3.64v-5.32h-1.56v-2.06h1.57v-3.89h2.8v3.89h2v2.06h-2v4.31zM98 92.06a8.82 8.82 0 0 1-3.43.77 4.16 4.16 0 0 1-3.14-1.14 4.62 4.62 0 0 1-1.09-3.29v-2.57a4.8 4.8 0 0 1 1-3.26 3.63 3.63 0 0 1 2.85-1.12 3.68 3.68 0 0 1 2.74 1 4 4 0 0 1 1 2.86v2.39h-5v.94a1.92 1.92 0 0 0 .57 1.45 2.22 2.22 0 0 0 1.56.52 6.1 6.1 0 0 0 2.58-.73zm-5-6h2.62v-.9q0-1.81-1.31-1.81a1.15 1.15 0 0 0-.95.45 2.1 2.1 0 0 0-.36 1.3v1zm-12.78 5.26a5.61 5.61 0 0 1-1.46 1.09 3.43 3.43 0 0 1-1.55.36 2.59 2.59 0 0 1-2-.82 3.18 3.18 0 0 1-.71-2.17q0-3.64 5.32-4.38v-.85a1 1 0 0 0-.37-.79 1.62 1.62 0 0 0-1-.31 4 4 0 0 0-2.48 1.1l-1.31-1.69a5.84 5.84 0 0 1 3.95-1.4q4 0 4 3.72v4.66a.64.64 0 0 0 .5.67v2.12h-.46a2.54 2.54 0 0 1-2.43-1.31zm-.4-4.27a3.67 3.67 0 0 0-2 .79 1.88 1.88 0 0 0-.68 1.43 1.42 1.42 0 0 0 .33 1 1.08 1.08 0 0 0 .82.36 1.26 1.26 0 0 0 1.13-.63 3 3 0 0 0 .41-1.7v-1.25zm-41.7 9.57v3.56a1.94 1.94 0 0 0 .14.9.79.79 0 0 0 1.21 0 2 2 0 0 0 .13-.89v-3.57h1.2v3.84a2.06 2.06 0 0 1-.47 1.49 2 2 0 0 1-1.46.49 1.72 1.72 0 0 1-1.94-2v-3.82h1.2zm5.84 5.69v-5.69h1.15l1.73 3.45v-3.45h1v5.69h-1l-1.9-3.84v3.84h-1zm7.18 0v-5.69h1.2v5.69h-1.2zm18.64-4.73v1.49h.33a1.57 1.57 0 0 0 .8-.13.87.87 0 0 0 0-1.23 1.58 1.58 0 0 0-.8-.13h-.33zm-1.2-1h1.36a8.48 8.48 0 0 1 1 0 1.9 1.9 0 0 1 .71.2 1.39 1.39 0 0 1 .56.57 1.85 1.85 0 0 1 .19.87 1.77 1.77 0 0 1-.25 1 1.43 1.43 0 0 1-.74.57l1.18 2.47h-1.36l-1-2.32h-.4v2.32h-1.2v-5.64zM58 102.31h-1.26l-1.66-5.69h1.2l1.09 4 1.09-4h1.2zm4.24 0v-5.69h3.64v1.1h-2.45v1h1.67v1.1h-1.67v1.38h2.6v1.1h-3.8zm12.7-1l.93-.69a2 2 0 0 0 .48.59.9.9 0 0 0 .57.19.72.72 0 0 0 .49-.17.56.56 0 0 0 .18-.43.8.8 0 0 0-.6-.72l-.74-.32a2.78 2.78 0 0 1-.6-.36 1.58 1.58 0 0 1-.57-1.28 1.6 1.6 0 0 1 .47-1.2 1.82 1.82 0 0 1 1.28-.45 1.93 1.93 0 0 1 1.77 1l-.86.65a1.19 1.19 0 0 0-1-.64.64.64 0 0 0-.44.15.49.49 0 0 0-.16.37.54.54 0 0 0 .16.38 1.59 1.59 0 0 0 .49.32l.8.3a2.66 2.66 0 0 1 .59.35 1.66 1.66 0 0 1 .57 1.31 1.7 1.7 0 0 1-.51 1.26 1.92 1.92 0 0 1-1.35.49 2.15 2.15 0 0 1-1.96-1.1zm6.68 1v-5.69h1.2v5.69h-1.2zm5.82 0v-4.59h-1.36v-1.1h3.93v1.1h-1.37v4.59h-1.2zm6.29 0V100l-1.66-3.42h1.27l1 2.12 1-2.12h1.26L94.93 100v2.27h-1.2zM64.39 81.19a3.4 3.4 0 0 0-1-1.14 2.64 2.64 0 0 0-1.55-.53 1.91 1.91 0 0 0-1.23.37 1.44 1.44 0 0 0-.47.72 1.61 1.61 0 0 0-.07.48 1.56 1.56 0 0 0 .62 1.26 4.49 4.49 0 0 0 1.27.66l1.84.71a6.44 6.44 0 0 1 1.33.7 4.31 4.31 0 0 1 1.1 1.06 4.26 4.26 0 0 1 .46.88 4.82 4.82 0 0 1 .33 1.76 6.08 6.08 0 0 1-.08 1 4.34 4.34 0 0 1-.52 1.47A4.25 4.25 0 0 1 65 92.04a4.87 4.87 0 0 1-1.41.58 5.73 5.73 0 0 1-1.33.18 6.32 6.32 0 0 1-3.1-.62 5.49 5.49 0 0 1-2.14-2.37l2.33-1.63a3.68 3.68 0 0 0 1.09 1.46 2.71 2.71 0 0 0 1.69.57 2.58 2.58 0 0 0 .84-.14 1.82 1.82 0 0 0 .81-.55 1.7 1.7 0 0 0 .37-1.12 1.57 1.57 0 0 0-.25-1 2.33 2.33 0 0 0-.88-.67q-.61-.3-1.69-.74a12 12 0 0 1-2-1 4.37 4.37 0 0 1-1.45-1.48 4.66 4.66 0 0 1-.56-2.38 4.08 4.08 0 0 1 1.22-3A4.83 4.83 0 0 1 61.93 77a5.3 5.3 0 0 1 2.72.67 6 6 0 0 1 2 2zM0 86.67v-4.09a8.81 8.81 0 0 1 .25-2.26 4.85 4.85 0 0 1 1-2A3.93 3.93 0 0 1 2.9 77.2a5.74 5.74 0 0 1 2-.33 6.22 6.22 0 0 1 2.1.32 4 4 0 0 1 1.71 1.15 4.42 4.42 0 0 1 .94 1.78 10.87 10.87 0 0 1 .33 2.94v3.7a10.53 10.53 0 0 1-.28 2.69 4.51 4.51 0 0 1-1 1.86 4.12 4.12 0 0 1-1.33 1 5.16 5.16 0 0 1-1.39.43 7.07 7.07 0 0 1-1.15.09 5.74 5.74 0 0 1-1.63-.24 4.32 4.32 0 0 1-1.7-.89 4.09 4.09 0 0 1-1.17-2 9.58 9.58 0 0 1-.31-1.69Q0 87.2 0 86.67zm3.24-4.61v5.3a4.47 4.47 0 0 0 .33 2 1.42 1.42 0 0 0 1.39.77 1.52 1.52 0 0 0 1.21-.48 2.12 2.12 0 0 0 .45-1.09 7.7 7.7 0 0 0 .06-1.18v-5.3A6.24 6.24 0 0 0 6.62 81a1.55 1.55 0 0 0-.44-.9A1.66 1.66 0 0 0 5 79.73a1.6 1.6 0 0 0-1.24.47 2 2 0 0 0-.46 1 4.7 4.7 0 0 0-.06.86z"/><path class="cls-2" d="M50.06 111.19c-7.89 0-22.76-.52-22.76-.52-.27 0-.27-.27 0-.28 0 0 14.72-.52 22.76-.52s21.12.52 21.12.52c.27 0 .27.26 0 .28 0 0-13.23.52-21.12.52zm-21.09 8.43h1.76v7.61h2.54v1.63h-4.3v-9.24zm6.74 1.52h-1.63v-1.53h1.63v1.53zm0 7.72h-1.63v-6.44h1.63v6.44zm2.86-9.24v3.33a1.5 1.5 0 0 1 1.31-.69c1.27 0 1.66 1.07 1.66 3.27a6.24 6.24 0 0 1-.35 2.68 1.46 1.46 0 0 1-1.35.8 1.35 1.35 0 0 1-1.28-.77v.62h-1.65v-9.24h1.61zm0 6.65c0 1.13.12 1.66.7 1.66s.66-.69.66-2.21v-.15c0-1.43-.07-2.16-.68-2.16-.46 0-.68.49-.68 1.48v1.39zm4.14-3.87h1.42l.1.85a1.39 1.39 0 0 1 1.42-1h.1v1.57h-.14c-.94 0-1.27.48-1.27 1.57v3.47h-1.63v-6.46zm3.94 1.6c0-1.1.77-1.71 2.28-1.71s2.14.58 2.14 1.87v3.21a8.9 8.9 0 0 0 .12 1.51h-1.45l-.13-.73a1.87 1.87 0 0 1-1.56.78c-1 0-1.56-.77-1.56-2 0-1.48.81-2.11 2.58-2.18h.51v-.3c0-.83-.15-1.21-.65-1.21a.76.76 0 0 0-.77.91h-1.5V124zm1.39 2.88c0 .64.24 1 .62 1 .57 0 .91-.54.91-1.62v-.56c-1.07-.04-1.53.22-1.53 1.14zm4.37-4.48h1.42l.1.85a1.39 1.39 0 0 1 1.42-1h.15v1.57h-.2c-.94 0-1.27.48-1.27 1.57v3.47h-1.62v-6.46zm5.54-1.26h-1.63v-1.53h1.63v1.53zm0 7.72h-1.63v-6.44h1.63v6.44zm5.88-2.39c0 1.68-.77 2.53-2.36 2.53-1.92 0-2.4-1-2.4-3.5 0-2.25.64-3.24 2.4-3.24 1.59 0 2.36.85 2.36 2.59v1h-3.1v.67c0 .95.21 1.39.73 1.39s.75-.44.75-1.3v-.12h1.62zm-1.64-1.66v-.54a.79.79 0 0 0-.72-1c-.49 0-.74.42-.74 1.28v.22h1.46zm4.11 1.92v.13c0 .67.24 1 .59 1a.66.66 0 0 0 .73-.67c0-.6-.55-.82-1.48-1.37s-1.41-.82-1.41-1.82a1.86 1.86 0 0 1 2.1-1.81c1.4 0 2.13.6 2.13 1.75v.21h-1.54a1.3 1.3 0 0 0 0-.21q0-.77-.59-.77a.55.55 0 0 0-.59.56c0 .55.68.77 1.7 1.44a2 2 0 0 1 1.23 1.83c0 1.26-.83 1.91-2.48 1.91a1.78 1.78 0 0 1-2-2 2 2 0 0 1 0-.26h1.61z"/></svg>
