<svg id="Layer_1" data-name="Layer 1" xmlns="http://www.w3.org/2000/svg" viewBox="0 0 256 103"><defs><style>.cls-1{fill:#231f20;}</style></defs><title>Oregon Digital</title><path class="cls-1" d="M45.4 44.48a18.68 18.68 0 0 1-13.57 5.38 18.67 18.67 0 0 1-13.57-5.38 18 18 0 0 1-5.51-13.39 18 18 0 0 1 5.51-13.39 18.67 18.67 0 0 1 13.57-5.38A18.68 18.68 0 0 1 45.4 17.7a18 18 0 0 1 5.51 13.39 18 18 0 0 1-5.51 13.39zm-2.75-13.36a11.89 11.89 0 0 0-3.12-8.29 10.29 10.29 0 0 0-15.34 0 11.89 11.89 0 0 0-3.12 8.29 11.8 11.8 0 0 0 3.12 8.27 10.34 10.34 0 0 0 15.34 0 11.8 11.8 0 0 0 3.12-8.27zM86.59 25.22q0 8.74-6.92 11.28l9.2 13h-10l-8.04-11.6h-5.61v11.6H57.1V13.15h13.78q8.48 0 12.12 2.85t3.59 9.22zm-9.78 4.32a5.49 5.49 0 0 0 1.51-4.29q0-2.94-1.56-4t-5.46-1.13h-6.08v10.76h5.93q4.15 0 5.66-1.35zM120.21 13.15v7.23h-18.1v7.49h16.28v6.92h-16.28v7.54h18.67v7.17H94V13.15h26.21zM150.55 31h8.16v12.9q-5.41 6-15 6a18.49 18.49 0 0 1-13.44-5.3 17.92 17.92 0 0 1-5.43-13.39 18.09 18.09 0 0 1 5.54-13.49 18.44 18.44 0 0 1 13.36-5.41 19.77 19.77 0 0 1 13.6 5.15l-4.21 6.08a16.09 16.09 0 0 0-4.5-2.94 12.08 12.08 0 0 0-4.45-.81 10.65 10.65 0 0 0-7.8 3.15 11.16 11.16 0 0 0-3.17 8.29 11.25 11.25 0 0 0 3 8.24 9.82 9.82 0 0 0 7.25 3.09 13.93 13.93 0 0 0 7-1.61V31zM195.93 44.48a19.8 19.8 0 0 1-27.14 0 18 18 0 0 1-5.51-13.39 18 18 0 0 1 5.51-13.39 19.8 19.8 0 0 1 27.14 0 18 18 0 0 1 5.51 13.39 18 18 0 0 1-5.51 13.39zm-2.76-13.36a11.89 11.89 0 0 0-3.12-8.29 10.29 10.29 0 0 0-15.34 0 11.89 11.89 0 0 0-3.12 8.29 11.8 11.8 0 0 0 3.12 8.27 10.34 10.34 0 0 0 15.34 0 11.8 11.8 0 0 0 3.13-8.27zM233.06 13.15h8.11V49.5h-8.11l-17.32-22.78V49.5h-8.11V13.15h7.59l17.84 23.4v-23.4zM39.77 57.3a17 17 0 0 1 6.34 6.17 17 17 0 0 1-6.4 23.63 18.37 18.37 0 0 1-9 2.25H16.93V55h13.88a17.92 17.92 0 0 1 8.96 2.3zM20.86 85.62h10a13.91 13.91 0 0 0 6.89-1.73 12.91 12.91 0 0 0 4.92-4.8 13.22 13.22 0 0 0 1.81-6.84 13 13 0 0 0-1.84-6.83 13.44 13.44 0 0 0-5-4.82 13.86 13.86 0 0 0-6.94-1.77h-9.84v26.8zM62.8 89.35V55h3.92v34.35H62.8zM111.81 72.6V85a21.22 21.22 0 0 1-6 3.28 19.79 19.79 0 0 1-6.77 1.22 17.85 17.85 0 0 1-9-2.32 17.66 17.66 0 0 1-6.48-6.29 16.55 16.55 0 0 1-2.4-8.73 16.36 16.36 0 0 1 2.4-8.7 17.48 17.48 0 0 1 6.57-6.25 18.49 18.49 0 0 1 9.12-2.31 19.13 19.13 0 0 1 6.83 1.26 18.64 18.64 0 0 1 5.8 3.46l-2.25 2.94a15.79 15.79 0 0 0-4.83-2.92 15.3 15.3 0 0 0-5.55-1.05 14.31 14.31 0 0 0-7.11 1.81A13.68 13.68 0 0 0 87 65.37a13.28 13.28 0 0 0 0 13.7 13.93 13.93 0 0 0 5.14 5 14.23 14.23 0 0 0 7.11 1.82 15 15 0 0 0 4.65-.77 17.19 17.19 0 0 0 4.37-2.13V72.6h3.47zM128.08 89.35V55H132v34.35h-3.92zM159.6 58.82v30.53h-3.92V58.82h-11.15V55h26.29v3.78H159.6zM183 80.69l-3.83 8.66H175L190.38 55h4.07l15.34 34.31h-4.26l-3.83-8.66H183zm9.31-21.17l-7.63 17.39h15.38zM241.11 85.62v3.73h-19V55h3.92v30.62h15z"/>
</svg>
