<svg id="Layer_1" xmlns="http://www.w3.org/2000/svg" viewBox="0 0 230 78">
  <style>
    .st0{fill:#204857;}
  </style>
  <title>
    Oregon_Digital_Materials
  </title>
  <path class="st0" d="M37.3 19c-.1 9.4-5.9 18.8-18.7 18.8S-.1 28.6-.1 19 6-.2 18.6-.2C31.2-.1 37.4 9.5 37.3 19zm-30.6.2c.2 6 3.4 12.4 12 12.4s11.8-6.4 11.9-12.4c.1-6.1-3.3-13-11.9-13s-12.2 6.8-12 13zM76.3 37h-8.2L57.5 24.8h-6.6V37H44V.5c5.8 0 11.5.1 17.3.1 8.6.1 13.1 5.8 13.1 12.1 0 5-2.3 10-9.2 11.4l11 12.4.1.5zM50.9 7v11.6h10.5c4.4 0 6.2-2.9 6.2-5.8S65.7 7 61.4 7H50.9zm57.5 30H81.2V.6h27.2v6.7H88v8.4h19.7v6.4H88v8.2h20.4V37zm33.9-27.5c-2.4-2.3-6.1-3.6-9.3-3.6-7.8 0-12.5 5.9-12.5 13.4 0 6 3.5 12.2 12.5 12.2 2.9 0 5.4-.6 8.2-2.9v-6.4H132v-6.1h15.6v15.3c-3.6 4.1-8.1 6.6-14.5 6.6-13.7 0-19.2-9-19.2-18.6 0-10.2 6.4-19.7 19.2-19.7 4.9 0 9.8 1.9 13.5 5.6l-4.3 4.2zm48.3 9.5c-.1 9.4-5.9 18.8-18.7 18.8s-18.7-9.2-18.7-18.8S159.3-.2 171.9-.2c12.5.1 18.8 9.7 18.7 19.2zm-30.7.2c.2 6 3.4 12.4 12 12.4s11.8-6.4 11.9-12.4c.1-6.1-3.3-13-11.9-13-8.6-.1-12.1 6.8-12 13zm61-18.7h6.9V37h-4.3v.1l-19.1-24.6V37h-6.9V.6h5.6l17.8 22.6V.5zm-188 58.8c.2 8.7-5.4 17.6-17.4 17.6H3.9V42.5h11.6c11.6 0 17.2 8.4 17.4 16.8zM6.5 45v29.3h9c10.2 0 14.9-7.7 14.8-15-.1-7.2-4.9-14.3-14.8-14.3h-9zm41.1 31.9V42.5h2.6v34.4h-2.6zm46.1-28c-3-2.9-7.2-4.4-11-4.4-10.1 0-15.2 7.4-15.2 15.3 0 8.1 5.2 15.1 15.2 15.1 3.7 0 7.5-1.3 10.5-4v-9.6h-12V59h14.5v12.9c-3.6 3.6-7.9 5.5-13 5.5C71 77.4 65 69.2 65 59.9c0-10.8 7.3-17.8 17.7-17.8 4.5 0 9.1 1.7 12.6 5.2l-1.6 1.6zm17.9 28V42.5h2.6v34.4h-2.6zm28.2-32h-12.4v-2.4h27.5v2.4h-12.4v32h-2.7v-32zm50.9 32l-3.8-8.4h-20.5l-3.7 8.4h-2.8l15.3-34.4h2.9l15.4 34.4h-2.8zM185.9 66l-9.2-20.9-9.2 20.9h18.4zm23-23.5v31.9h19.3v2.5h-22V42.5h2.7z"/>
</svg>
