<svg id="Layer_1" xmlns="http://www.w3.org/2000/svg" viewBox="0 0 300 69.7"><style>.st0{fill:#FFFFFF;}</style><path class="st0" d="M56.5 38.3c-2 .8-3.8 1.2-5.6 1.3-2.2 0-3.9-.6-5.1-1.9-1.2-1.2-1.8-3-1.8-5.3v-4.2c0-2.3.5-4.1 1.6-5.3 1.1-1.2 2.6-1.8 4.6-1.8 1.9 0 3.4.6 4.5 1.7s1.6 2.7 1.6 4.6v3.8h-8.1v1.5c0 1 .3 1.8.9 2.4.6.6 1.4.8 2.5.8 1.2 0 2.6-.4 4.2-1.2l.7 3.6zm-8.2-9.6h4.3v-1.5c0-2-.7-2.9-2.1-2.9-.6 0-1.2.2-1.5.7-.4.5-.6 1.2-.6 2.1v1.6h-.1zM132 32c0 1.3.1 2.3.5 2.8.4.6 1.1.8 2.2.8h.6v3.9c-.7.1-1.3.1-1.9.1-2.2 0-3.8-.4-4.7-1.3-.9-.9-1.3-2.4-1.3-4.6V25h-2.6v-3.3h2.6v-6.3h4.5v6.3h3.2V25H132v7zM58.2 43.2l2.8-1.7c.2.3.5.7 1 1 .4.4 1 .6 1.8.6.4 0 .9-.1 1.4-.3s1-.6 1.2-1.2c.2-.5.3-1.2.3-2v-1.8c-1.1 1.3-2.4 1.9-3.8 1.8-1.8 0-3-.7-3.7-2.2s-1-3.7-1-6.7c0-1.6 0-3.1.1-4.3.1-1.2.4-2.2.8-3 .4-.7.9-1.2 1.6-1.6.7-.4 1.5-.6 2.3-.6.9 0 1.8.3 2.3.6.3.2 1 .6 1.4 1.2v-1.4h4.4v15.7c0 .9 0 1.8-.1 2.8s-.2 2-.6 2.9-1.1 1.7-2.1 2.2c-1 .6-2.4.9-4.1.9-1.3 0-2.4-.2-3.2-.5s-1.5-.7-1.9-1.1c-.5-.5-.8-.9-.9-1.3zm8.5-9.6V27c-.1-.6-.2-1.1-.3-1.5-.3-.7-.8-1-1.7-1-.9 0-1.4.5-1.7 1.4-.2.9-.3 2.4-.3 4.3v.4c0 1.8.1 3.2.3 4.1s.8 1.4 1.6 1.4c1.3 0 1.9-.8 2.1-2.5zm21.5 5.6V21.7h4.2v3.2c.6-1 1.3-1.8 2.1-2.5s1.8-1.1 2.9-1.1c1.4 0 2.4.4 3 1s1 1.4 1.1 2.1c.1.8.2 1.4.2 1.9v12.9h-4.5V26.9c0-.4-.2-.7-.4-1-.2-.3-.6-.4-1.1-.5-.6 0-1.2.2-1.6.6s-.9.8-1.3 1.3v12l-4.6-.1zM73.3 30c0-.8 0-1.8.1-2.8s.3-2 .7-2.9c.4-.9 1-1.7 1.9-2.3.9-.6 2.1-.9 3.6-.9.6 0 1.3 0 1.9.1.7.1 1.3.3 2 .7.6.4 1.2 1 1.7 1.8.4.7.7 1.6.8 2.6.1 1.1.2 2.4.2 3.9 0 1.8 0 3.2-.2 4.4s-.7 2.2-1.5 3c-.2.3-.7.7-1.4 1-.7.4-1.7.6-3.1.6-.5 0-1.1 0-1.9-.1-.7-.1-1.4-.3-1.9-.6-.9-.6-1.6-1.2-2-2.1-.4-.8-.7-1.8-.8-2.9-.1-.8-.1-2.1-.1-3.5zm4.3 1.9c0 .8 0 1.5.1 2.1 0 .2.1.5.1.7l.1.3c.2.5.5.9.9 1l.4.1c.2.1.4.1.5.1.3 0 .5 0 .7-.1.4-.1.7-.2.9-.5.1-.1.2-.3.3-.6.2-.4.3-.8.3-1.3.1-.7.1-1.4.1-2.1v-2.7c0-.9 0-1.6-.1-2.3-.1-.7-.3-1.2-.6-1.6-.3-.4-.9-.6-1.6-.6s-1.2.2-1.5.7c-.3.4-.5 1-.5 1.7 0 .4-.1.8-.1 1.2v3.9zm-43.1 7.3V21.7h3.9l.3 2.2c.6-1.8 2-2.7 4.1-2.7h.3v4.3h-.4c-1.3 0-2.3.3-2.8 1-.6.7-.8 1.8-.8 3.3v9.5l-4.6-.1zM158.1 32c0 1.3.1 2.3.5 2.8.4.6 1.1.8 2.2.8h.6v3.9c-.7.1-1.3.1-1.9.1-2.2 0-3.8-.4-4.7-1.3-.9-.9-1.3-2.4-1.3-4.6V25H151v-3.3h2.5v-6.3h4.5v6.3h3.2V25H158v7h.1zm16.8 6.3c-2 .8-3.8 1.2-5.6 1.3-2.2 0-3.9-.6-5.1-1.9-1.2-1.2-1.8-3-1.8-5.3v-4.2c0-2.3.5-4.1 1.6-5.3 1.1-1.2 2.6-1.8 4.6-1.8 1.9 0 3.4.6 4.5 1.7s1.6 2.7 1.6 4.6v3.8h-8.1v1.5c0 1 .3 1.8.9 2.4.6.6 1.4.8 2.5.8 1.2 0 2.6-.4 4.2-1.2l.7 3.6zm-8.2-9.6h4.3v-1.5c0-2-.7-2.9-2.1-2.9-.6 0-1.2.2-1.5.7-.4.5-.6 1.2-.6 2.1l-.1 1.6zM146 37.1c-.8.8-1.6 1.4-2.4 1.8-.8.4-1.6.6-2.5.6-1.4 0-2.4-.5-3.2-1.3-.8-.9-1.2-2-1.2-3.5 0-3.9 2.9-6.3 8.6-7.1v-1.4c0-.5-.2-.9-.6-1.3-.4-.3-1-.5-1.7-.5-1.3 0-2.6.6-4 1.8l-2.1-2.7c1.8-1.5 3.9-2.3 6.4-2.3 4.3 0 6.5 2 6.6 6v7.6c0 .6.3.9.8 1.1v3.4h-.8c-1.8 0-3.1-.7-3.9-2.2zm-.7-6.9c-1.4.2-2.4.6-3.2 1.3-.7.7-1.1 1.4-1.1 2.3 0 .7.2 1.2.5 1.6.3.4.8.6 1.3.6.7 0 1.3-.3 1.8-.9.4-.6.6-1.5.7-2.8v-2.1zM77.7 45.8v5.8c0 .7.1 1.2.2 1.5.2.3.5.5 1 .5s.8-.1 1-.5c.2-.3.2-.8.2-1.5v-5.8H82V52c0 1.1-.3 1.9-.8 2.4s-1.3.8-2.4.8c-2.1 0-3.2-1.1-3.1-3.2v-6.2h2zm9.4 9.2v-9.2H89l2.8 5.6v-5.6h1.7V55h-1.6l-3.1-6.2V55h-1.7zm11.7 0v-9.3h1.9V55h-1.9zm30.3-7.7v2.4h.5c.6 0 1-.1 1.3-.2.3-.2.4-.5.4-1s-.1-.8-.4-1c-.3-.2-.7-.2-1.3-.2h-.5zm-2-1.6h2.2c.6 0 1.1 0 1.6.1.4 0 .8.2 1.1.3.4.2.7.5.9.9s.3.9.3 1.4c0 .6-.1 1.1-.4 1.6-.3.4-.7.7-1.2.9l1.9 4h-2.1l-1.7-3.8h-.6V55h-1.9v-9.3h-.1zM109.9 55h-2.1l-2.7-9.2h1.9l1.8 6.5 1.8-6.5h1.9l-2.6 9.2zm6.9 0v-9.2h5.9v1.8h-4v1.7h2.7V51h-2.7v2.2h4.2V55h-6.1zm20.6-1.6l1.5-1.1c.2.4.5.8.8 1s.6.3.9.3c.3 0 .6-.1.8-.3s.3-.4.3-.7c0-.5-.3-.9-1-1.2l-1.2-.5c-.4-.2-.7-.4-1-.6-.6-.5-.9-1.2-.9-2.1 0-.8.3-1.5.8-1.9.5-.5 1.2-.7 2.1-.7 1.3 0 2.2.5 2.9 1.6l-1.4 1c-.5-.7-1-1-1.6-1-.3 0-.5.1-.7.2s-.3.4-.3.6c0 .2.1.4.3.6.2.2.4.4.8.5l1.2.5c.4.2.7.4 1 .6.6.5.9 1.2.9 2.1 0 .9-.3 1.5-.8 2.1-.5.5-1.3.8-2.2.8-1.4 0-2.5-.6-3.2-1.8zm10.9 1.6v-9.3h1.9V55h-1.9zm9.4 0v-7.4h-2.2v-1.8h6.4v1.8h-2.2V55h-2zm10.2 0v-3.7l-2.7-5.5h2.1l1.6 3.4 1.6-3.4h2.1l-2.7 5.5V55h-2zm-47.6-34.3c-.4-.7-.9-1.3-1.6-1.9-.7-.5-1.6-.8-2.5-.9-.9 0-1.6.2-2 .6s-.7.7-.8 1.2c-.1.4-.1.6-.1.8 0 .9.4 1.6 1 2.1s1.3.8 2.1 1.1l3 1.1c.7.3 1.4.6 2.2 1.1.7.5 1.3 1.1 1.8 1.7.2.2.4.7.7 1.4.3.7.5 1.7.5 2.8 0 .4 0 1-.1 1.7s-.4 1.5-.8 2.4c-.5.8-1.2 1.6-2.3 2.3-.7.4-1.5.7-2.3.9s-1.6.3-2.2.3c-2 0-3.7-.3-5-1s-2.5-2-3.5-3.8l3.8-2.6c.4 1 1 1.8 1.8 2.4.8.6 1.7.9 2.7.9.4 0 .9-.1 1.4-.2.5-.2.9-.5 1.3-.9s.6-1.1.6-1.8c0-.6-.1-1.1-.4-1.5s-.8-.8-1.4-1.1c-.7-.3-1.6-.7-2.7-1.2-1.2-.5-2.3-1-3.3-1.6s-1.8-1.4-2.4-2.4-.9-2.3-.9-3.9c0-2 .7-3.7 2-4.9 1.3-1.3 3.1-1.9 5.6-1.9 1.7 0 3.2.4 4.4 1.1 1.2.7 2.3 1.8 3.2 3.2l-3.8 2.5zM15.8 29.6V23c0-1.3.1-2.5.4-3.7.3-1.2.8-2.2 1.6-3.2.8-.9 1.6-1.5 2.7-1.8 1-.4 2.1-.5 3.2-.5 1.2 0 2.3.2 3.4.5 1.1.4 2 1 2.8 1.9.7.7 1.2 1.7 1.5 2.9.4 1.2.5 2.8.5 4.8v6c0 1.7-.1 3.2-.5 4.4-.3 1.2-.8 2.2-1.6 3-.7.7-1.4 1.3-2.2 1.6-.8.4-1.5.6-2.3.7-.7.1-1.3.2-1.9.1-.8 0-1.7-.1-2.6-.4-1-.3-1.9-.8-2.7-1.5-.8-.7-1.5-1.8-1.9-3.2-.2-.9-.4-1.8-.5-2.8.1-.9.1-1.6.1-2.2zm5.3-7.5v8.6c0 1.3.1 2.4.5 3.2s1.1 1.2 2.3 1.3c.9 0 1.6-.3 2-.8s.6-1.1.7-1.8.1-1.3.1-1.9v-8.6c0-.6 0-1.2-.1-1.8-.1-.6-.3-1.1-.7-1.5-.4-.4-1-.6-1.9-.6s-1.6.3-2 .8-.7 1-.7 1.6c-.2.7-.3 1.2-.2 1.5zm165.6 11.6c0 8.3-.9 23.9-.9 23.9 0 .4-.5.4-.5 0 0 0-.9-15.4-.9-23.9 0-8.4.9-22.2.9-22.2 0-.4.5-.4.5 0-.1 0 .9 13.9.9 22.2zm11.5-9.1h2.8v12.1h4v2.6h-6.8V24.6zm10.7 2.4h-2.6v-2.4h2.6V27zm0 12.3h-2.6V29h2.6v10.3zm4.5-14.7v5.3c.5-.8 1.2-1.1 2.1-1.1 2 0 2.6 1.7 2.6 5.2 0 1.9-.1 3.3-.5 4.3-.4.8-1.2 1.3-2.1 1.3-.9 0-1.7-.4-2-1.2l-.1 1h-2.5c.1-.9.1-1.7.1-2.3V24.6h2.4zm0 10.5c0 1.8.2 2.6 1.1 2.6 1 0 1-1.1 1-3.5V34c0-2.3-.1-3.4-1.1-3.4-.7 0-1.1.8-1.1 2.3v2.2h.1zM220 29h2.3l.2 1.3c.3-1 1.1-1.6 2.3-1.6h.2v2.5h-.2c-1.5 0-2 .8-2 2.5v5.5H220V29zm6.2 2.5c0-1.8 1.2-2.7 3.6-2.7 2.3 0 3.4.9 3.4 3v5.1c0 .9.1 1.7.2 2.4h-2.3l-.2-1.2c-.5.7-1.4 1.2-2.5 1.2-1.5 0-2.5-1.2-2.5-3.2 0-2.3 1.3-3.3 4.1-3.5h.8v-.5c0-1.3-.2-1.9-1-1.9s-1.2.5-1.2 1.4l-2.4-.1c0 .1 0 .1 0 0zm2.2 4.6c0 1 .4 1.6 1 1.6.9 0 1.4-.9 1.4-2.6v-.9c-1.7 0-2.4.4-2.4 1.9zm7-7.1h2.3l.2 1.3c.3-1 1.1-1.6 2.3-1.6h.2v2.5h-.2c-1.5 0-2 .8-2 2.5v5.5h-2.6V29h-.2zm8.8-2h-2.6v-2.4h2.6V27zm0 12.3h-2.6V29h2.6v10.3zm9.3-3.8c0 2.7-1.2 4-3.7 4-3 0-3.8-1.6-3.8-5.6 0-3.6 1-5.1 3.8-5.1 2.5 0 3.7 1.3 3.7 4.1v1.5h-4.9v1.1c0 1.5.3 2.2 1.2 2.2.8 0 1.2-.7 1.2-2.1v-.2l2.5.1zm-2.6-2.7V32c0-1-.4-1.5-1.1-1.5-.8 0-1.2.7-1.2 2v.3h2.3zm6.5 3.1v.2c0 1.1.4 1.7.9 1.7.7 0 1.2-.4 1.2-1.1 0-1-.9-1.3-2.3-2.2s-2.2-1.3-2.2-2.9c0-1.7 1.3-2.9 3.3-2.9 2.2 0 3.4 1 3.4 2.8v.3h-2.4v-.3c0-.8-.3-1.2-.9-1.2-.5 0-.9.4-.9.9 0 .9 1.1 1.2 2.7 2.3 1.3.9 1.9 1.5 1.9 2.9 0 2-1.3 3-3.9 3-2 0-3.1-1.1-3.1-3.1v-.4h2.3z"/></svg>
