<svg id="Layer_1" data-name="Layer 1" xmlns="http://www.w3.org/2000/svg" viewBox="0 0 70.31 97"><defs><style>.cls-1{fill:#fff;}</style></defs><title>University of Oregon Libraries</title><path class="cls-1" d="M2.55 82.44c0-2.65 1-5 3.65-5s3.69 2.37 3.69 5-1.06 5.2-3.69 5.2-3.65-2.37-3.65-5.2m-2.09 0a5.75 5.75 0 1 0 11.5 0 5.58 5.58 0 0 0-5.8-5.63 5.58 5.58 0 0 0-5.7 5.63m16.7.2H15.8v-4.76a5.33 5.33 0 0 1 1.08-.18h.41c1.75 0 2.57.76 2.57 2.34a2.38 2.38 0 0 1-2.7 2.6m3.54 5.43h2.69v-.5l-1.06-.28a3.73 3.73 0 0 1-1.11-1.2l-1.06-1.68a4.39 4.39 0 0 0-1.17-1.47 3.33 3.33 0 0 0 2.82-3c0-1.93-1.81-2.88-4.2-2.88h-5.18v.48l1 .23c.33.07.46.11.46.39V87c0 .25-.05.26-.48.35l-1 .22v.51h4.86v-.5l-1.06-.21c-.38-.07-.43-.11-.43-.37v-3.69h1.72l1.66 2.79a7.39 7.39 0 0 0 1.52 2m10.38-11h-7.05v.52l1 .21c.41.07.46.12.46.37V87c0 .25-.05.28-.48.35l-1 .22v.51h8.76l.51-3.45h-.46a7.5 7.5 0 0 1-1 2.28 4.72 4.72 0 0 1-2.32.55h-.45a11.33 11.33 0 0 1-1.65-.12v-4.63h2.13a2.7 2.7 0 0 1 1 1.7h.36v-4h-.39a2.61 2.61 0 0 1-1 1.63h-2.1v-4.2a8.5 8.5 0 0 1 1.38-.11h.16a6 6 0 0 1 2.59.53 7.47 7.47 0 0 1 .83 2.16h.48l-.32-3.52a5.66 5.66 0 0 1-1.42.2m12.93 3.66h.48l-.21-3.82h-.37l-.34.46a6.34 6.34 0 0 0-3-.58c-3.83 0-6.38 2.37-6.38 5.56a5.61 5.61 0 0 0 5.69 5.87 11 11 0 0 0 4.59-.94l-.1-.31v-3.3a.54.54 0 0 1 .46-.58l.33-.12v-.41h-4.28v.48l1.28.29c.37.09.44.17.44.42v3.15a3.85 3.85 0 0 1-2.37.73c-2.14 0-3.94-1.93-3.94-5.39 0-2.76 1.42-4.85 4.24-4.85a4 4 0 0 1 2.64.81 9.42 9.42 0 0 1 .87 2.53m11.54 1.68c0 2.69-1.06 5.2-3.69 5.2s-3.65-2.37-3.65-5.2c0-2.65 1-5 3.65-5s3.69 2.37 3.69 5m2.07 0a5.75 5.75 0 0 0-11.5 0 5.75 5.75 0 1 0 11.5 0M67.56 80v5.1l-6.48-8h-2.92v.52l.83.19c.5.11.55.11.55.39v7c0 .5-.05 1.4-.09 1.81s-.1.39-.32.42l-1.08.18v.5h4.18v-.5l-1.45-.21a.38.38 0 0 1-.33-.4c-.05-.51-.09-1.31-.09-1.82V78.9l7.62 9.38h.4V78.16a.37.37 0 0 1 .37-.41l1.06-.17v-.48h-4.13v.5l1.48.2c.21 0 .28.11.32.42s.07 1.13.07 1.81M6.03 69.09v-.29H4.35v.29l.52.1c.15 0 .15.06.15.12v2.47a1.33 1.33 0 0 1-1.34 1.57 1.25 1.25 0 0 1-1.18-1.5v-2.52c0-.09 0-.11.14-.14l.52-.1v-.29H.98v.29l.4.09c.14 0 .15.06.15.14v2.54a1.83 1.83 0 0 0 2 1.95 1.82 1.82 0 0 0 1.94-2v-2.49c0-.07 0-.1.16-.14zm6.29.08l.49-.08v-.29h-1.93v.29l.66.1a.14.14 0 0 1 .12.16 6.37 6.37 0 0 1 0 .8v2.05l-2.71-3.39H7.57v.29l.41.1c.16 0 .17 0 .17.13v3.89a.11.11 0 0 1-.11.13l-.5.08v.29h1.93v-.3l-.66-.1a.12.12 0 0 1-.11-.13V69.8l3.2 4h.26v-4.42a.12.12 0 0 1 .13-.15m2 4.54h2.26v-.35l-.39-.1c-.18 0-.18 0-.18-.12v-3.88c0-.08 0-.08.18-.12l.45-.1v-.3h-2.28v.29l.47.11c.18 0 .18 0 .18.12v3.88c0 .08 0 .09-.19.12l-.44.1v.29zm8.63-4.62v-.35h-1.49v.29l.39.09a.31.31 0 0 1 .15.06.14.14 0 0 1 0 .08l-1.28 3.27-1.26-3.25a.1.1 0 0 1 0-.09.2.2 0 0 1 .13-.06l.43-.09v-.3h-2v.29l.17.08a.25.25 0 0 1 .2.17l1.8 4.45h.42l1.9-4.45a.24.24 0 0 1 .18-.16zm3 4.22v-2h.82a1.15 1.15 0 0 1 .42.72h.22v-1.85h-.22a1.15 1.15 0 0 1-.42.69h-.78v-1.74a2.81 2.81 0 0 1 .5 0h.07a2.48 2.48 0 0 1 1.1.23 2.92 2.92 0 0 1 .38.94h.27l-.12-1.64a2.4 2.4 0 0 1-.61.08h-3.21v.29l.46.1c.18 0 .18 0 .18.13v3.88c0 .08 0 .09-.18.12l-.45.1v.29h3.91l.24-1.58h-.28a3.32 3.32 0 0 1-.47 1 2 2 0 0 1-1 .23h-.17a3.72 3.72 0 0 1-.57 0zm6.09-2.07h-.39v-2a1.7 1.7 0 0 1 .4-.07h.14a.9.9 0 0 1 1.06 1 1 1 0 0 1-1.16 1.12m1.5 2.46h1.3v-.39l-.45-.12a1.55 1.55 0 0 1-.47-.52l-.45-.73a2.49 2.49 0 0 0-.5-.63 1.5 1.5 0 0 0 1.17-1.31c0-.81-.72-1.31-1.89-1.31h-2.26v.28l.46.11c.18 0 .18 0 .18.13v3.88c0 .08 0 .09-.18.12l-.45.1v.29h2.25v-.29l-.47-.1c-.16 0-.16 0-.16-.13v-1.58h.52l.72 1.22a3 3 0 0 0 .67.88zm3.72-3.94a.74.74 0 0 1 .76-.87 1.13 1.13 0 0 1 .84.39 2.9 2.9 0 0 1 .33.89h.29l-.04-1.55h-.22l-.16.22a2.12 2.12 0 0 0-1-.25 1.392 1.392 0 1 0-.55 2.73l.49.2a1 1 0 0 1 .74.94.88.88 0 0 1-1 .92 1 1 0 0 1-.86-.49 4.25 4.25 0 0 1-.31-1h-.31v1.83h.23l.13-.22a2.82 2.82 0 0 0 1.18.22 1.6 1.6 0 0 0 1.85-1.48 1.52 1.52 0 0 0-1.09-1.4l-.71-.34a.86.86 0 0 1-.62-.83m3.91 3.93h2.3v-.29l-.47-.1c-.18 0-.18 0-.18-.12v-3.88c0-.08 0-.08.19-.12l.45-.1v-.3h-2.29v.29l.47.11c.18 0 .18 0 .18.12v3.88c0 .08 0 .09-.18.12l-.45.1v.29zm8-3.38h.28l-.06-1.62a2.2 2.2 0 0 1-.63.09h-3.1a2.18 2.18 0 0 1-.71-.1l-.06 1.62h.28a3.64 3.64 0 0 1 .37-1 2.1 2.1 0 0 1 .94-.18h.24v4.06c0 .08 0 .08-.16.11l-.54.11v.29h2.4v-.29l-.54-.11c-.16 0-.16 0-.16-.11v-4.06h.32a1.53 1.53 0 0 1 .87.19 3.6 3.6 0 0 1 .37 1zm6.12-1.17l.25-.07v-.29h-1.48v.29l.38.07a.38.38 0 0 1 .19.07.12.12 0 0 1 0 .09l-1.06 1.8-1.19-1.83a.1.1 0 0 1 0-.06.27.27 0 0 1 .11 0l.4-.09v-.34h-2v.29l.24.08a.33.33 0 0 1 .2.17l1.52 2.33v1.5c0 .07 0 .09-.18.12l-.54.11v.29h2.44v-.27L54 73.3c-.18 0-.18 0-.18-.12v-1.65l1.34-2.19a.34.34 0 0 1 .25-.18m6.54 4.29c-1.11 0-1.51-1.22-1.51-2.26a3 3 0 0 1 .34-1.49 1.34 1.34 0 0 1 2.33 0 3 3 0 0 1 .34 1.49c0 1-.4 2.25-1.51 2.26m2.57-2.26a2.49 2.49 0 0 0-2.55-2.52 2.49 2.49 0 0 0-2.55 2.52 2.58 2.58 0 0 0 2.57 2.62 2.57 2.57 0 0 0 2.56-2.62m5.32-.86l-.2-1.61a3.44 3.44 0 0 1-.81.08h-2.98v.29l.53.1c.18 0 .18 0 .18.12v3.89c0 .08 0 .09-.19.12l-.45.1v.29h2.43v-.29l-.66-.13c-.12 0-.12 0-.12-.1v-1.77h.88a2.1 2.1 0 0 1 .37.79h.24v-1.88h-.28a1.33 1.33 0 0 1-.37.69h-.89v-1.81a2.36 2.36 0 0 1 .5-.06h.12a2.24 2.24 0 0 1 1 .23 2.81 2.81 0 0 1 .38.94h.27zm-6.76-39.2c-.94 6.11-6.06 10.63-11.94 12.87a44.89 44.89 0 0 1-16 2.77 45.35 45.35 0 0 1-16-2.77c-5.89-2.25-11-6.77-11.94-12.88a48.42 48.42 0 0 1-.63-7.74 51.68 51.68 0 0 1 .63-7.75C8.16 9.53 13.28 5 19.16 2.76a45.56 45.56 0 0 1 16-2.76 45.12 45.12 0 0 1 16 2.76c5.88 2.24 11 6.77 11.94 12.88a50.61 50.61 0 0 1 .62 7.75 50.42 50.42 0 0 1-.62 7.74M49.53 16.75c-.15-2.62-.42-5.4-1.89-7.5-2.88-4.14-7.75-5.84-12.48-5.8s-9.6 1.66-12.47 5.79c-1.46 2.11-1.75 4.89-1.89 7.5-.1 1.92-.18 4.27-.18 6.64s.06 4.72.15 6.64c.15 2.62.46 5.4 1.92 7.51 2.87 4.13 7.73 5.75 12.48 5.79s9.6-1.66 12.48-5.79c1.46-2.11 1.76-4.89 1.9-7.51.11-1.92.08-4.22.08-6.6s0-4.76-.09-6.68M0 59.89h70.31v.35H0zm0 36.76h70.31V97H0zM13.55 45h1.85v6.1h2.76v1.46h-4.61V45z"/><path class="cls-1" d="M19.03 45.35a1 1 0 1 1 1 1 1 1 0 0 1-1-1zm.13 1.65h1.75v5.56h-1.75V47zm3.11 5.21v-7.87H24v3.06a2 2 0 0 1 1.35-.58c1.35 0 2.35.91 2.35 2.87a2.78 2.78 0 0 1-3 3 6 6 0 0 1-2.43-.48zm3.6-2.52c0-1-.33-1.52-1-1.52a1.15 1.15 0 0 0-.84.39v2.66a1.84 1.84 0 0 0 .69.1c.69 0 1.15-.49 1.15-1.63zM28.7 47h1.73v.73a1.62 1.62 0 0 1 1.39-.86 1.56 1.56 0 0 1 .81.17l-.41 1.48a1.19 1.19 0 0 0-.61-.14 1.43 1.43 0 0 0-1.17.75v3.44H28.7V47zm4.28 4.07c0-1.43 1.45-2 3-2h.18v-.25c0-.44-.19-.65-.84-.65a2.3 2.3 0 0 0-1.4.5l-.73-1a3.49 3.49 0 0 1 2.34-.82c1.61 0 2.35.6 2.35 2.12v1.82a8.54 8.54 0 0 0 .16 1.76h-1.73a2.9 2.9 0 0 1-.1-.58 2 2 0 0 1-1.52.72 1.56 1.56 0 0 1-1.71-1.62zm3.18-.07v-.89h-.23c-.78 0-1.32.24-1.32.81a.54.54 0 0 0 .62.52 1.14 1.14 0 0 0 .93-.44zm3-4h1.73v.73a1.62 1.62 0 0 1 1.39-.86 1.56 1.56 0 0 1 .81.17l-.41 1.48a1.2 1.2 0 0 0-.61-.14 1.43 1.43 0 0 0-1.17.75v3.44h-1.74V47zm4.45-1.65a1 1 0 1 1 1 1 1 1 0 0 1-1-1zm.15 1.65h1.75v5.56h-1.75V47zm2.76 2.72a2.74 2.74 0 0 1 2.83-2.9c1.81 0 2.66 1.24 2.46 3.38h-3.42a1.21 1.21 0 0 0 1.31 1.19 2.83 2.83 0 0 0 1.46-.39l.53 1.08a3.81 3.81 0 0 1-2.12.53 2.74 2.74 0 0 1-3.05-2.89zm3.64-.65a.87.87 0 0 0-.84-1 1 1 0 0 0-1 1h1.84zm2.3 3.06l.56-1.19a2.69 2.69 0 0 0 1.37.45c.55 0 .84-.14.84-.41s-.68-.4-1.46-.79a1.67 1.67 0 0 1-1.15-1.61c0-1.09.87-1.76 2.17-1.76a3.73 3.73 0 0 1 1.83.42l-.57 1.17a2.53 2.53 0 0 0-1.18-.33c-.51 0-.72.16-.72.41s.53.4 1.17.65a1.8 1.8 0 0 1 1.45 1.69c0 1.21-.86 1.83-2.28 1.83a3.61 3.61 0 0 1-2.03-.53z"/></svg>
