<svg id="Layer_1" xmlns="http://www.w3.org/2000/svg" viewBox="0 0 375 69.7"><style>.st0{fill:#666666;}</style><path class="st0" d="M102.1 42.3c0-5 2-9.5 6.9-9.5 5 0 7 4.5 7 9.5 0 5.1-2 9.9-7 9.9-4.9 0-6.9-4.5-6.9-9.9m-3.9 0c0 6 4.6 11.1 10.9 11.1 6.4 0 10.9-5.1 10.9-11.1 0-5.9-4.6-10.7-10.9-10.7-6.4.1-10.9 4.8-10.9 10.7m31.6.4h-2.6v-9c.5-.1 1.5-.3 2.1-.3h.8c3.3 0 4.9 1.4 4.9 4.4-.1 3-1.7 4.9-5.2 4.9m6.7 10.3h5.1v-.9l-2-.5c-.7-.4-1.4-1.1-2.1-2.3l-2.1-3.2c-1.1-1.7-1.6-2.4-2.2-2.8 2.9-.6 5.3-2.9 5.3-5.6 0-3.7-3.4-5.5-8-5.5h-9.7v.9l2 .4c.6.1.9.2.9.7v16.7c0 .5-.1.5-.9.7l-2 .4v1h9.2v-.9l-2-.4c-.7-.1-.8-.2-.8-.7v-7h3.3l3.2 5.3c1 1.7 2.1 3.2 2.8 3.7m19.7-20.8h-13.4v1l2 .4c.8.1.9.2.9.7V51c0 .5-.1.5-.9.7l-2 .4v1h16.6l1-6.5h-.9c-.4 1.5-1.3 3.5-2 4.3-.9.7-3.1 1-4.4 1h-.8c-1.4 0-2.4-.1-3.1-.2v-8.8h4c1 .7 1.5 1.8 1.8 3.2h.7v-7.7h-.7c-.2 1-.9 2.5-1.8 3.1h-4v-7.9c.7-.1 1.8-.2 2.6-.2h.3c2 0 4.2.5 4.9 1 .6.9 1.2 2.5 1.6 4.1h.9l-.6-6.7c-.5.2-1.7.4-2.7.4m24.5 6.9h.9l-.4-7.2h-.7l-.6.9c-.9-.4-2.5-1.1-5.7-1.1-7.3 0-12.1 4.5-12.1 10.5 0 6.1 4.2 11.1 10.8 11.1 3.7 0 7.2-.9 8.7-1.8l-.2-.6v-6.2c0-.7.2-.8.9-1.1l.6-.2v-.8h-8.1v.9l2.4.6c.7.2.8.3.8.8v6c-.8.8-2.8 1.4-4.5 1.4-4.1 0-7.5-3.7-7.5-10.2 0-5.2 2.7-9.2 8-9.2 2.6 0 4.2.8 5 1.5.7.9 1.5 3.3 1.7 4.7m21.9 3.2c0 5.1-2 9.9-7 9.9s-6.9-4.5-6.9-9.9c0-5 2-9.5 6.9-9.5 5.1.1 7 4.6 7 9.5m3.9 0c0-5.9-4.6-10.7-10.9-10.7-6.3 0-10.9 4.8-10.9 10.7 0 6 4.6 11.1 10.9 11.1 6.4 0 10.9-5.1 10.9-11.1m18.9-4.5v9.6l-12.3-15.2h-5.5v1l1.6.4c.9.2 1 .2 1 .7v13.2c0 .9-.1 2.7-.2 3.4-.1.6-.2.7-.6.8l-2 .3v1h7.9v-.9l-2.8-.4c-.4-.1-.5-.3-.6-.7-.1-1-.2-2.5-.2-3.5V35.6l14.4 17.8h.7V37.7c0-1.2.1-2.6.1-3.5 0-.6.4-.7.7-.8l2-.3v-.9h-7.9v.9l2.8.4c.4.1.5.2.6.8.2.8.3 2.2.3 3.5M108.7 17v-.5h-3.2v.5l1 .2c.3.1.3.1.3.2v4.7c0 1.9-.9 3-2.5 3-1.4 0-2.2-1.1-2.2-2.8v-4.8c0-.2 0-.2.3-.3l.9-.2v-.5h-4.1v.5l.8.2c.3.1.3.1.3.3v4.8c0 2.3 1.4 3.7 3.9 3.7 2.3 0 3.7-1.4 3.7-3.8v-4.7c0-.1 0-.2.3-.3l.5-.2zm11.9.2l.9-.2v-.5h-3.7v.5l1.3.2c.1 0 .2.1.2.3 0 .3.1.9.1 1.5v3.9l-5.1-6.4h-2.7v.5l.8.2h.1c.3.1.3.1.3.2v5.8c0 .4 0 .9-.1 1.2v.4c0 .2-.1.2-.2.2l-.9.2v.5h3.7v-.5L114 25c-.2 0-.2-.1-.2-.2 0-.3-.1-1-.1-1.5v-4.9l6.1 7.6h.6v-8.5c0-.3.1-.3.2-.3m3.9 8.6h4.3v-.5l-.9-.2c-.3-.1-.3-.1-.3-.2v-7.4c0-.1 0-.2.4-.2l.8-.2v-.5h-4.3v.4l.9.2c.3.1.3.1.3.2v7.4c0 .2 0 .2-.4.2l-.8.2v.6zm16.3-8.8v-.5h-2.9v.5l.7.2c.1 0 .3.1.3.1v.1l-2.4 6.2-2.4-6.2v-.2s.1-.1.2-.1l.8-.2v-.6h-3.8v.7l.4.1c.2.1.3.1.4.3l3.3 8.4h.8l3.6-8.4c.1-.2.2-.3.3-.3l.7-.1zm5.7 8v-3.7h1.6c.4.3.7.7.8 1.4v.1h.4v-3.5h-.4v.1c-.1.4-.4 1.1-.8 1.3h-1.6v-3.4c.3 0 .6-.1 1-.1h.1c.9 0 1.7.2 2.1.4.2.3.5 1 .7 1.8h.5l-.3-3.1h-.1c-.2.1-.8.2-1.2.2h-6v.5l.9.2c.3.1.3.1.3.2v7.4c0 .2 0 .2-.4.2l-.8.2v.5h7.4l.4-3h-.5c-.2.7-.6 1.5-.9 1.9-.4.3-1.3.4-1.9.4h-.3c-.4.1-.6.1-1 0zm11.5-3.9h-.8v-3.9c.1 0 .5-.1.8-.1h.2c1.3 0 2 .6 2 1.9 0 1.4-.7 2.1-2.2 2.1m2.9 4.7h2.5v-.5l-.9-.2c-.3-.2-.6-.5-.9-1l-.9-1.4c-.4-.6-.7-1-1-1.2 1.2-.3 2.3-1.2 2.3-2.5 0-1.5-1.4-2.5-3.6-2.5h-4.3v.5l.9.2c.3.1.3.1.3.2v7.4c0 .2 0 .2-.3.2l-.8.2v.5h4.3v-.5l-.9-.2c-.3-.1-.3-.1-.3-.2v-3h1l1.4 2.3c.5.9.9 1.5 1.2 1.7zm7-7.5c0-.9.6-1.5 1.5-1.5.7 0 1.2.4 1.6.7.2.4.5 1.1.6 1.7v.1h.6l-.1-3h-.4l-.3.4c-.6-.3-1.2-.5-2-.5-1.9 0-3.2 1.1-3.2 2.5 0 1.2.7 2.1 2.2 2.7l.9.4c.7.3 1.4.7 1.4 1.8s-.7 1.7-1.8 1.7c-.9 0-1.3-.4-1.6-.8-.3-.6-.5-1.4-.6-2v-.1h-.6v1.2c0 .9.1 1.9 0 2.3v.1h.4l.2-.4c.6.3 1.4.4 2.2.4 2.1 0 3.5-1.1 3.5-2.8 0-1.5-1-2.1-2.1-2.6l-1.4-.6c-.6-.5-1-1-1-1.7m7.5 7.5h4.3v-.5l-.9-.2c-.3-.1-.3-.1-.3-.2v-7.4c0-.1 0-.2.4-.2l.8-.2v-.5h-4.3v.4l.9.2c.3.1.3.1.3.2v7.4c0 .2 0 .2-.3.2l-.8.2-.1.6zm15.3-6.4h.5l-.1-3.1h-.1c-.2.1-.9.2-1.2.2h-5.9c-.5 0-1.1-.1-1.3-.2h-.1l-.1 3.1h.5c.1-.6.4-1.4.7-1.8.3-.2.9-.3 1.8-.3h.5V25c0 .1 0 .1-.3.2l-1 .2v.5h4.6v-.5l-1-.2c-.3-.1-.3-.1-.3-.2v-7.7h.6c.7 0 1.1.1 1.6.4.1.2.4 1 .6 1.7zm11.6-2.3l.5-.1v-.5h-3v.5l.7.1c.2 0 .3.1.4.1v.2l-2 3.4-2.3-3.5-.1-.1s.1-.1.2-.1l.8-.2v-.6h-3.8v.7l.5.2c.2.1.2.1.4.3l2.9 4.4v2.8c0 .1 0 .2-.4.2l-1 .2v.5h4.6v-.5l-1.1-.2c-.3-.1-.3-.1-.3-.2v-3.1l2.6-4.2c0-.2.1-.2.4-.3m12.4 8.2c-2.1 0-2.9-2.3-2.9-4.3 0-1.1.2-2.1.6-2.8.5-.9 1.2-1.3 2.2-1.3s1.7.4 2.2 1.3c.4.7.6 1.7.6 2.8.1 2-.6 4.3-2.7 4.3m4.8-4.3c0-2.7-2.1-4.7-4.8-4.8h-.1c-2.8 0-4.8 2.1-4.8 4.8 0 2.4 1.8 4.9 4.9 5 3-.1 4.8-2.6 4.8-5m10.1-1.6l-.3-3.1h-.1c-.3.1-1 .2-1.5.2h-5.5v.5l1 .2c.3.1.3.1.3.2v7.4c0 .2 0 .2-.3.2l-.8.2v.5h4.6v-.5l-1.3-.2h-.1c-.2 0-.2 0-.2-.2v-3.3h1.7c.3.3.6 1.1.7 1.5h.5v-3.6h-.5v.1c-.1.4-.4 1.1-.7 1.3h-1.7v-3.5c.3-.1.7-.1 1-.1h.1c.8 0 1.6.2 1.9.4.3.3.6 1 .7 1.8h.5zM67.5 41.3c-.9 5.8-5.7 10.1-11.3 12.2-4.6 1.8-9.9 2.6-15.2 2.6s-10.5-.9-15.2-2.6c-5.6-2.1-10.4-6.4-11.3-12.2-.4-2.3-.6-4.7-.6-7.3s.2-5.1.6-7.3c.9-5.8 5.7-10.1 11.3-12.2 4.6-1.8 9.9-2.6 15.2-2.6s10.5.9 15.2 2.6c5.6 2.1 10.4 6.4 11.3 12.2.4 2.3.6 4.7.6 7.3s-.3 5.1-.6 7.3M54.6 27.7c-.1-2.5-.4-5.1-1.8-7.1-2.7-3.9-7.4-5.5-11.8-5.5-4.5 0-9.1 1.6-11.8 5.5-1.4 2-1.7 4.6-1.8 7.1-.1 1.8-.2 4-.2 6.3s.1 4.5.1 6.3c.1 2.5.4 5.1 1.8 7.1 2.7 3.9 7.3 5.5 11.8 5.5s9.1-1.6 11.8-5.5c1.4-2 1.7-4.6 1.8-7.1.1-1.8.1-4 .1-6.3.1-2.2.1-4.5 0-6.3m27-15.2h.7v44.7h-.7zm163.4 0h.7v44.7h-.7zm19.8 16.1h2.7v8.9h4v2.1h-6.7v-11zm8 .5c0-.8.6-1.4 1.5-1.4s1.5.7 1.5 1.4-.6 1.4-1.5 1.4-1.5-.6-1.5-1.4zm.2 2.4h2.5v8.1H273v-8.1zm4.6 7.6V27.7h2.5v4.4c.4-.4 1.1-.8 2-.8 2 0 3.4 1.3 3.4 4.2s-1.9 4.3-4.4 4.3c-1.8-.1-3-.5-3.5-.7zm5.2-3.7c0-1.5-.5-2.2-1.5-2.2-.6 0-1 .3-1.2.6v3.9c.2.1.5.1 1 .1 1 0 1.7-.7 1.7-2.4zm4.1-3.9h2.5v1.1c.4-.6 1-1.3 2-1.3.6 0 1 .1 1.2.2l-.6 2.1c-.1-.1-.4-.2-.9-.2-.9 0-1.5.7-1.7 1.1v5h-2.5v-8zm6.3 5.9c0-2.1 2.1-2.9 4.3-2.9h.3v-.4c0-.6-.3-.9-1.2-.9-.9 0-1.6.4-2 .7l-1.1-1.5c.6-.5 1.7-1.2 3.4-1.2 2.3 0 3.4.9 3.4 3.1V37c0 1.2.1 2 .2 2.6H298c-.1-.2-.1-.6-.1-.8-.4.5-1.2 1-2.2 1-1.4-.1-2.5-.9-2.5-2.4zm4.5 0V36h-.3c-1.1 0-1.9.3-1.9 1.2 0 .5.4.8.9.8.7 0 1-.3 1.3-.6zm4.4-5.9h2.5v1.1c.4-.6 1-1.3 2-1.3.6 0 1 .1 1.2.2l-.6 2.1c-.1-.1-.4-.2-.9-.2-.9 0-1.5.7-1.7 1.1v5h-2.5v-8zm6.6-2.4c0-.8.6-1.4 1.5-1.4s1.5.7 1.5 1.4-.6 1.4-1.5 1.4c-.9.1-1.5-.6-1.5-1.4zm.2 2.4h2.5v8.1h-2.5v-8.1zm4 4c0-2.6 1.8-4.2 4.1-4.2 2.6 0 3.9 1.8 3.6 4.9h-5c.1 1 .7 1.7 1.9 1.7 1.1 0 1.6-.3 2.1-.5l.8 1.6c-.6.3-1.4.8-3.1.8-2.8-.1-4.4-1.7-4.4-4.3zm5.3-1c0-.8-.3-1.5-1.2-1.5-.8 0-1.3.5-1.4 1.5h2.6zm3.4 4.5l.8-1.7c.3.2 1.1.7 2 .7.8 0 1.2-.2 1.2-.6 0-.5-1-.6-2.1-1.2-1.1-.5-1.7-1.2-1.7-2.3 0-1.6 1.3-2.6 3.2-2.6 1.4 0 2.3.4 2.7.6l-.8 1.7c-.3-.2-1-.5-1.7-.5s-1 .2-1 .6c0 .5.8.6 1.7.9 1.3.5 2.1 1.1 2.1 2.5 0 1.8-1.3 2.7-3.3 2.7-1.7-.1-2.6-.5-3.1-.8z"/></svg>
